<svg width="315" height="315" viewBox="0 0 315 315" fill="none" xmlns="http://www.w3.org/2000/svg">
<path d="M197.198 271.295C200.316 271.82 202.348 274.361 205.224 275.439C206.983 276.097 209.381 275.614 210.93 276.711C211.036 276.931 211.15 277.029 211.082 277.282C210.922 277.866 210.386 278.269 209.916 278.606C207.463 280.365 204.642 281.636 202.037 283.155C199.97 284.361 198.044 285.809 196.008 287.07C194.902 287.564 193.913 287.645 192.724 287.691C189.897 286.433 190.297 283.329 188.125 281.654C186.662 280.525 184.146 280.525 182.946 279.09C182.742 278.844 182.622 278.538 182.671 278.22C183.021 275.893 192.172 275.482 194.251 274.407C195.512 273.755 196.029 272.149 197.198 271.295Z" fill="black"/>
<path d="M183.088 260.146C186.656 259.397 197.979 261.325 201.645 262.196C202.026 263.373 202.638 264.992 202.269 266.215C200.036 267.601 196.1 268.407 193.516 269.297C191.086 270.134 188.505 271.405 185.996 271.9C185.286 272.04 184.533 271.881 183.826 271.772C178.043 271.452 170.102 269.877 164.504 268.436C164.318 267.236 164.261 266.084 164.257 264.869C168.962 262.23 177.732 260.872 183.088 260.146ZM185.23 261.384C182.585 261.759 179.952 262.208 177.332 262.731C175.56 263.08 173.753 263.548 171.964 263.757C175.033 264.523 180.208 265.364 183.363 265.612C184.001 265.714 184.675 265.846 185.324 265.818C188.286 265.691 193.41 263.92 196.295 262.93C194.048 262.78 186.647 261.061 185.23 261.384ZM168.244 264.898C170.818 266.495 182.08 267.885 185.544 268.293C185.489 267.807 185.527 267.436 185.222 267.046C182.662 266.203 170.694 264.654 168.244 264.898ZM198.013 263.328C195.981 264.126 193.911 264.72 191.809 265.301C190.306 265.718 188.583 266.034 187.202 266.752C186.87 266.924 186.854 267.001 186.702 267.332C186.781 267.744 186.808 267.793 187.093 268.105C187.702 268.359 188.619 267.965 189.223 267.772C193.234 266.412 197.241 264.917 201.334 263.822C200.243 263.7 199.09 263.354 198.013 263.328Z" fill="black"/>
<path d="M63.1392 243.341C67.9011 242.865 71.0525 245.946 75.3601 247.055C77.4303 247.589 79.8754 246.978 81.884 247.743C82.2136 247.867 82.105 247.778 82.2442 248.101C82.2156 248.164 82.1898 248.229 82.1587 248.29C81.7333 249.133 80.3333 249.871 79.5483 250.36C76.7114 252.131 73.7138 253.783 70.5789 254.962C68.2466 255.839 65.8033 256.482 63.5028 257.426C61.893 258.088 60.4758 259.147 58.8063 259.675C56.7597 259.092 54.9863 257.926 53.0123 257.168C49.265 255.73 46.4845 255.673 42.7799 253.417C41.7621 252.797 39.7349 251.554 39.4405 250.342C40.0259 249.721 44.3549 249.507 45.3482 249.338C52.0867 248.187 56.8747 245.072 63.1392 243.341ZM63.7146 244.909C61.4965 245.368 59.3615 246.534 57.2568 247.36C52.3518 249.284 47.3949 250.834 42.1294 251.372C44.1055 252.497 46.0715 253.467 48.2601 254.126C49.887 254.615 51.5728 254.953 53.1759 255.511C54.9129 256.116 56.5848 256.997 58.2349 257.808C59.4509 258.034 62.5367 256.233 63.815 255.721C65.8707 254.899 68.0126 254.299 70.0847 253.52C73.2975 252.312 76.4758 250.66 79.3937 248.861C72.986 249.376 69.3526 244.923 63.7146 244.909Z" fill="black"/>
<path d="M268.676 239.491C268.914 239.477 269.162 239.462 269.402 239.488C270.326 239.586 270.846 240.301 271.378 240.98C273.482 241.635 275.507 242.636 277.641 243.184C280.25 243.851 283 244.099 285.563 244.92C286.965 245.371 288.697 246.194 289.352 247.603C289.738 248.432 289.622 249.578 289.299 250.41C288.86 251.542 287.933 252.277 286.824 252.708C283.068 254.169 278.637 252.769 274.947 251.765C272.989 251.231 271.045 250.73 269.184 249.905C269.16 248.284 269.013 246.684 269.042 245.06C268.624 246.28 268.362 249.162 267.385 249.876L267.039 249.777C265.183 247.675 269.294 243.204 269.145 241.387C269.125 241.149 269.02 241.135 268.851 240.997C267.639 240.93 266.415 242.004 265.295 242.455C263.803 243.054 259.784 243.682 258.831 244.477L258.978 244.8C261.55 248.155 265.089 249.545 268.779 251.263C269.98 251.823 271.32 252.426 272.232 253.417C272.704 253.93 273.029 254.564 272.987 255.278C272.927 256.317 272.201 257.245 271.415 257.871C269.373 259.5 266.729 259.677 264.243 259.343C260.735 258.874 250.551 255.584 248.464 252.626C248.006 251.977 248.073 251.045 248.235 250.313C248.898 247.3 251.583 243.765 254.216 242.192C254.976 241.738 255.933 241.395 256.817 241.656C257.509 241.861 257.812 242.299 258.162 242.898C260.135 242.362 262.162 241.878 264.097 241.223C265.646 240.7 267.113 239.98 268.676 239.491ZM257.213 245.415C255.776 247.363 254.307 251.069 254.736 253.509C254.876 254.304 255.255 254.836 255.918 255.288C258.338 256.943 265.215 258.422 268.118 257.766C268.373 257.711 268.625 257.642 268.873 257.56C269.696 257.183 271.031 256.539 271.331 255.601C271.411 255.351 271.411 255.255 271.291 255.013C270.469 253.346 263.291 250.843 261.356 249.499C260.267 248.744 259.311 247.83 258.442 246.832C258.049 246.381 257.679 245.782 257.213 245.415ZM270.671 242.933C269.856 245.086 270.186 246.924 270.952 249.041C275.783 250.377 282.193 253.086 287.087 251.029C287.667 250.503 288.237 249.928 288.277 249.096C288.305 248.509 287.964 248.05 287.542 247.687C284.6 245.157 279.23 245.359 275.583 244.459C273.927 244.05 272.334 243.302 270.671 242.933ZM255.838 242.816C253.061 244.217 250.908 246.961 249.927 249.911C249.698 250.6 249.536 251.542 249.97 252.189C250.227 252.574 250.711 252.827 251.125 253.006C251.849 253.361 252.6 253.698 253.304 254.09C253.357 250.64 253.64 247.347 255.636 244.428C255.993 243.904 256.488 243.499 256.051 242.893L255.838 242.816Z" fill="black"/>
<path d="M244.216 27.1472C248.252 27.0771 252.288 27.0416 256.325 27.0409C258.872 27.0303 261.545 26.8651 264.069 27.1863C265.477 27.3651 267.367 27.6748 268.436 28.663C268.545 28.7643 268.704 28.9155 268.756 29.0604C269.313 30.636 268.274 40.9131 268.124 43.297L261.362 154.708L259.223 190.597L258.522 201.428C258.349 203.824 258.068 206.231 258.074 208.635L258.906 209.387C259.577 214.042 259.497 218.823 259.304 223.515L258.209 224.265C258.055 226.762 257.831 229.873 258.115 232.326C258.222 233.24 258.997 234.158 258.955 235.046C258.935 235.499 257.217 235.642 256.794 235.782C254.081 236.682 241.915 245.658 238.931 248.05C239.502 248.935 240.267 249.921 240.549 250.946C240.689 251.454 240.594 251.842 240.315 252.275C238.92 254.439 232.416 257.928 229.759 257.854C227.274 257.786 225.119 255.899 222.799 255.172C219.11 254.015 215.158 253.617 211.365 252.887C207.271 252.1 203.129 250.688 198.931 250.716C196.721 250.731 194.485 251.44 192.356 251.971C191.033 251.505 189.751 250.914 188.968 249.685C188.369 248.747 187.989 246.932 188.294 245.845C188.431 245.357 188.685 245.026 189.162 244.836C190.85 244.16 192.851 243.922 194.632 243.565C199.556 242.575 205.01 241.646 209.473 239.254L207.945 238.263L191.535 240.589C186.89 241.215 182.211 241.744 177.581 242.475C171.801 243.385 166.119 244.811 160.285 245.414C158.647 245.583 156.637 245.812 155.036 245.319C154.129 245.039 153.377 244.508 152.957 243.64C151.48 240.583 156.185 234.88 157.646 232.365C158.374 231.111 158.934 229.838 159.376 228.46C154.258 228.821 149.071 228.432 143.953 228.839C143.455 233.201 143.695 237.662 143.24 242.049C142.844 245.877 141.98 249.265 138.894 251.788C138.632 253.426 138.17 255.261 138.274 256.92C138.592 261.958 143.184 267.307 147.035 270.182C148.883 271.561 150.974 272.596 152.7 274.144C153.17 274.565 154.075 275.42 153.984 276.134C153.802 277.555 150.248 279.299 149.054 279.99C144.863 279.301 143.084 276.266 139.48 274.499C136.744 273.159 133.076 272.723 130.671 270.854C126.999 267.998 130.256 260.793 130.338 256.942C130.363 255.748 129.807 254.195 129.63 252.974C125.031 247.827 126.481 236.636 125.346 230.018L125.306 229.79C118.98 229.75 112.595 230.255 106.265 230.418C105.887 234.867 105.265 243.171 103.859 247.117C103.501 248.121 102.767 248.839 102.118 249.659C100.816 251.302 100.344 253.29 100.029 255.321C99.8461 256.497 99.8532 257.74 100.015 258.92C100.308 261.047 101.521 263.903 100.523 265.944C99.0086 269.04 90.0423 271.512 86.87 273.133C85.2167 273.976 83.7794 275.474 82.0309 276.08C80.3056 276.679 78.6762 276.551 77.0518 275.717C76.2176 275.29 75.3255 274.659 75.0506 273.712C74.8093 272.881 75.0841 271.984 75.6992 271.394C77.0355 270.112 79.1515 269.511 80.7263 268.53C84.9965 265.867 90.3232 259.964 92.5956 255.582C92.3722 253.604 92.165 251.645 92.066 249.656C91.3514 248.973 90.7997 248.302 90.3835 247.4C88.505 243.324 88.354 235.236 88.0874 230.682C80.9106 230.644 73.7028 231.119 66.5278 231.343C57.5086 231.625 48.4388 231.713 39.4328 232.257C39.5327 234.234 40.3757 241.278 39.5345 242.762C39.3381 243.11 39.0343 243.362 38.6426 243.454C38.1013 243.584 37.1689 243.51 36.724 243.138C35.6781 242.262 35.8882 234.069 35.8443 232.32C34.7412 232.396 32.617 232.722 31.7149 232.054C30.6518 230.228 30.8194 224.868 30.7757 222.599C30.7588 215.912 29.9469 210.741 29.0052 204.224L27.4121 192.688C26.9091 189.08 25.7391 185.032 26.1352 181.406C27.7717 180.354 29.8478 179.898 31.6755 179.265C34.046 178.44 36.4108 177.598 38.7698 176.74L60.9076 168.74C66.0973 166.833 71.7603 164.514 77.0624 163.045C78.6562 167.199 78.8145 172.622 79.844 177.072C82.9138 177.321 85.8427 178.381 88.8192 179.129C89.6054 175.491 89.7189 171.532 90.1446 167.827C91.0687 159.784 91.9882 151.571 93.4374 143.613C93.0802 143.12 92.5139 142.453 92.4376 141.84C92.0652 138.844 92.9792 135.394 93.3192 132.409C93.6974 129.173 93.9501 125.923 94.0767 122.666C92.1732 122.538 89.7736 122.506 88.3217 121.073C87.7818 120.54 87.3682 119.728 87.4071 118.953C87.5283 116.549 88.5616 113.992 89.0836 111.641C89.9285 107.835 90.2438 103.906 90.2744 100.014C88.132 99.4921 85.9772 99.0852 83.8529 98.4795C78.3473 96.9096 68.3326 93.5179 65.5786 88.321C64.7348 86.729 64.6324 84.8383 65.1833 83.1332C65.6404 81.7182 66.5108 80.4262 67.6052 79.4227C70.4107 76.8505 74.2005 75.0492 77.5192 73.2213C81.89 70.7847 86.3019 68.4225 90.7529 66.1357C88.1091 57.3663 89.4249 43.4365 91.0901 34.4533C91.4208 32.6691 91.6589 30.5899 92.3922 28.9245C92.6354 28.3724 92.8921 27.9489 93.471 27.7217C96.2384 27.774 104.673 32.6283 107.107 34.3307C108.651 33.5766 110.103 33.0839 111.806 32.8232C117.136 32.0068 122.117 33.2277 126.453 36.4139C128.996 36.6061 132.433 36.5777 134.535 38.1968C135.372 38.8416 135.789 39.8619 136.415 40.687C137.125 41.6207 138.29 42.2969 138.86 43.3228C139.456 44.3961 139.689 45.7833 140.032 46.9642C140.63 49.024 141.643 51.0454 142.893 52.786C145.018 55.747 147.797 57.9637 150.267 60.5998C155.587 66.2786 166.962 79.2445 167.897 87.1367C168.174 89.4806 167.551 91.6502 166.069 93.4978C161.45 99.2521 150.767 100.247 143.863 100.99C142.996 106.855 141.686 112.228 138.116 117.081C138.142 119.304 138.464 121.579 138.711 123.787C139.201 127.955 139.713 132.12 140.247 136.282C140.534 138.586 140.896 140.936 140.909 143.26L139.966 144.115C139.908 149.168 140.991 154.205 141.503 159.216C142.179 165.821 142.444 172.461 143.053 179.069C148.149 178.993 153.385 178.83 158.42 179.767C161.508 180.342 164.435 181.582 167.576 181.888C172.456 182.365 177.394 181.777 182.28 181.651L182.369 159.55C181.023 159.512 179.253 159.446 178.075 158.763C177.326 158.331 176.914 157.668 176.695 156.846C176.195 154.958 176.377 151.274 176.32 149.209C176.014 140.636 176.443 132.053 177.601 123.554C178.26 118.809 179.438 114.145 179.828 109.367C180.314 103.413 180.484 97.4394 180.85 91.4783C181.493 81.0491 182.236 70.6043 182.597 60.1619C182.795 53.8279 182.897 47.4912 182.9 41.1541C182.909 37.7975 182.705 34.3541 182.955 31.0092C183.014 30.2225 183.117 29.4966 183.511 28.7996C183.818 28.5342 184.094 28.4346 184.489 28.3735C186.367 28.083 188.419 28.1283 190.323 28.047C194.653 27.8709 198.984 27.7408 203.317 27.6566C216.948 27.4008 230.582 27.231 244.216 27.1472ZM249.744 28.6804C228.061 29.1299 206.373 29.0986 184.69 29.729C184.304 33.1897 184.584 36.8082 184.529 40.2972C184.427 46.5166 184.092 52.7585 184.28 58.9794L208.375 59.001C209.835 58.9962 211.305 59.0306 212.763 58.9507C213.025 58.2504 213.369 57.3071 214.102 56.959C214.438 56.7984 214.778 56.8206 215.114 56.977C215.878 57.3344 216.172 58.3145 216.463 59.0346C219.087 59.0497 221.726 59.1714 224.348 59.1329C224.504 58.4316 224.707 57.4964 225.436 57.1548C225.765 57.0002 226.116 56.9956 226.437 57.1691C227.229 57.5956 227.452 58.5812 227.641 59.3756L232.516 59.3644C232.74 58.6108 233.034 57.5955 233.831 57.2348C234.186 57.0736 234.532 57.1154 234.864 57.3028C235.435 57.6256 235.653 58.2121 235.77 58.8185C235.795 58.9462 235.817 59.0742 235.838 59.2026C241.146 59.4032 246.617 59.6142 251.915 59.2534C252.158 58.5848 252.472 57.6653 253.247 57.4353C253.626 57.3228 253.972 57.4393 254.279 57.6657C254.709 57.9824 254.887 58.4917 255.068 58.9691L255.148 59.1769C255.164 59.2188 255.178 59.2609 255.193 59.3029C257.374 59.3765 259.557 59.4193 261.739 59.4315C261.867 54.8855 262.414 50.314 262.751 45.7751C263.173 40.1067 263.426 34.4114 264.003 28.7573C259.813 28.2903 254.061 28.5935 249.744 28.6804ZM143.387 193.168C143.362 194.327 143.351 195.487 143.356 196.646C147.301 197.35 152.172 198.725 154.582 202.215C158.426 207.778 162.182 222.461 160.908 229.298C160.641 230.728 159.843 232.256 159.09 233.492C157.908 235.435 153.186 241.121 154.562 243.188C157.051 244.912 164.504 243.208 167.478 242.667C172.027 241.839 176.482 240.89 181.074 240.294C189.171 239.24 197.523 238.651 205.485 236.853C202.692 234.861 200.051 232.672 197.33 230.584C193.473 227.621 187.25 224.362 186.401 219.1C186.341 218.737 186.328 218.361 186.311 217.993C186.751 217.945 187.179 217.834 187.579 218.068C188.529 219.637 188.891 221.324 190.131 222.77C192.125 225.097 195.006 226.519 197.404 228.38C200.422 230.721 203.264 233.381 206.459 235.476C208.161 236.591 210.01 237.49 211.827 238.402C214.283 236.639 216.126 234.587 217.875 232.131C216.075 231.082 214.177 230.075 212.617 228.676C209.758 226.111 207.834 222.612 204.858 220.189C201.952 217.825 198.221 217.015 195.669 214.08C192.064 209.935 192.498 203.793 186.745 201.154C180.474 198.279 173.069 198.861 166.392 197.656C162.163 196.893 158.011 195.889 153.824 194.943C150.421 194.176 146.885 193.31 143.387 193.168ZM189.483 157.3C188.937 151.976 189.203 146.455 189.383 141.118C189.791 128.989 190.958 116.933 191.641 104.824C191.915 100.161 192.078 95.4922 192.13 90.8213C192.148 88.5963 191.833 86.1783 192.076 83.9882C192.128 83.5182 192.204 83.0679 192.59 82.7549C193.053 82.6929 193.084 82.7895 193.482 83.0497C193.404 83.3599 193.073 105.998 193.196 106.767C193.254 111.779 192.528 116.987 192.142 121.985C191.422 131.31 190.796 140.665 190.812 150.022C190.816 152.704 190.549 156.148 191.43 158.695C194.199 161.181 197.579 161.176 201.034 161.833C200.775 156.234 200.797 150.626 201.1 145.03C201.257 141.887 201.668 138.674 201.598 135.531C201.572 134.291 201 133.037 200.813 131.802C200.508 129.783 200.539 127.61 200.497 125.567C200.176 109.935 201.06 94.4581 201.988 78.8673C201.343 79.9888 200.608 81.085 199.86 82.1405C199.433 82.7422 198.636 83.9912 197.879 84.1221L197.583 83.8943C197.249 82.8118 197.67 78.162 197.636 76.5378C197.603 74.8859 197.438 73.2423 197.281 71.5987C194.857 72.6736 192.433 74.0398 190.833 76.2163C186.502 82.1122 179.856 117.164 178.89 125.587C178.015 133.22 178.14 140.789 178.121 148.449C178.115 150.808 177.804 153.513 178.197 155.825C178.3 156.431 178.483 157.057 179.026 157.414C181.087 158.766 187.15 157.721 189.483 157.3ZM143.453 180.76L143.152 180.994C143.286 181.302 143.182 181.213 143.478 181.337C144.757 181.877 146.854 181.817 148.251 182.054C150.393 182.417 152.552 183.065 154.584 183.815C160.412 185.97 165.501 189.694 171.464 191.578C179.964 194.263 195.525 193.903 199.825 203.29C200.05 203.779 200.28 204.379 200.117 204.916C200.037 205.181 199.885 205.207 199.668 205.35C198.925 205.225 198.518 204.635 198.102 204.046C196.1 201.208 195.58 200.308 192.353 198.793C187.694 196.609 182.575 195.565 177.549 194.611C174.954 194.119 172.315 193.711 169.811 192.85C161.92 190.135 155.321 184.976 146.926 183.48C145.689 183.265 144.443 183.115 143.191 183.031C143.209 185.885 143.182 188.749 143.361 191.599C151.342 192.391 158.981 194.812 166.879 196.123C172.935 197.127 179.195 196.869 185.115 198.63C187.651 199.385 190.051 200.58 191.755 202.664C192.944 204.119 193.58 205.864 194.246 207.597C196.892 214.492 198.515 214.185 204.422 217.748C205.821 218.754 207.133 219.785 208.318 221.038C211.893 224.819 213.714 228.384 218.851 230.574C220.24 229.412 221.526 228.707 223.287 228.247C221.077 227.44 215.534 224.419 214.501 222.204C214.403 221.993 214.405 221.797 214.414 221.571C214.538 221.398 214.581 221.218 214.815 221.201C216.22 221.095 219.103 223.995 220.314 224.845C220.977 225.311 221.717 225.688 222.453 226.025C225.799 227.557 229.413 227.612 233.008 227.952C227.614 224.773 222.792 222.59 221.108 216.02C219.182 208.501 221.314 201.635 213.994 196.481C215.675 198.701 217.273 201.603 216.945 204.484C216.898 204.899 216.81 205.274 216.558 205.613C216.261 205.736 216.352 205.768 216.089 205.656C215.689 205.487 215.481 205.216 215.346 204.813C215.015 203.826 215.081 202.647 214.903 201.617C214.454 199.033 212.402 196.826 210.164 195.606C206.886 193.82 202.478 193.197 198.793 193.523C197.678 193.622 196.129 194.016 195.035 193.805C194.571 193.716 194.271 193.434 194.108 192.999C194.262 192.654 194.393 192.565 194.751 192.433C196.807 191.669 202.023 192.027 204.359 192.141C193.973 186.519 188.548 192.296 178.581 190.449C174.248 189.646 170.678 187.731 166.836 185.71C158.472 181.31 152.723 180.496 143.453 180.76ZM188.36 159.101L184.147 159.581C184.021 164.438 183.963 169.297 183.974 174.156C183.967 176.577 183.851 179.078 184.017 181.491C189.837 181.248 195.614 180.967 201.423 181.563C213.356 182.788 225.073 186.227 236.745 188.889C240.372 189.717 244.317 189.912 247.824 191.089C249.587 191.696 251.206 192.662 252.578 193.925C253.066 194.368 253.512 194.854 253.913 195.377C253.941 194.557 253.944 193.728 254.041 192.914C254.259 189.332 254.567 185.678 254.566 182.091C251.153 182.291 241.583 183.408 239.119 181.173C238.542 180.651 238.217 179.942 238.031 179.196C237.44 176.825 237.374 169.256 237.264 166.439C234.284 166.758 231.119 166.069 228.209 166.649C225.585 167.171 223.066 168.348 220.52 169.163C216.83 170.345 205.422 173.525 202.42 171.078C201.108 170.009 201.245 165.1 201.157 163.402L201.149 163.265C197.519 163.054 193.201 162.829 190.533 159.995C190.244 159.687 189.984 159.341 189.724 159.007L188.36 159.101ZM231.331 72.8974C228.627 74.932 221.8 79.6049 220.037 82.008C217.112 85.9981 213.791 109.932 212.936 115.978C210.886 130.268 209.508 144.647 208.807 159.067C210.493 159.521 212.205 159.869 213.911 160.236C215.555 160.548 217.169 160.833 218.836 160.99C219.306 158.747 220.023 156.531 220.594 154.31C221.722 149.833 222.779 145.339 223.765 140.829C224.481 137.613 225.291 134.374 225.705 131.102C226.189 127.252 225.759 123.42 225.823 119.562C226.049 106.042 226.672 92.3734 232.742 80.0257C232.419 79.6002 232.182 79.3203 232.126 78.7784C232.389 78.2383 232.828 78.1274 233.361 77.9117C233.875 77.7045 234.097 77.4443 234.36 76.9569C233.597 75.7496 232.551 73.6357 231.331 72.8974ZM226.532 66.4825C224.799 67.4012 223.086 68.311 221.226 68.9545C217.621 70.2016 213.589 70.8227 210.358 72.9583C209.426 75.5438 209.555 78.7277 209.294 81.463C208.992 84.6342 208.624 87.8058 208.266 90.971C206.505 106.506 204.284 121.928 203.195 137.536C202.443 148.33 202.129 159.092 203.375 169.863C209.841 171.523 220.454 167.581 226.614 165.187C226.322 163.365 225.702 159.939 226.62 158.274C226.937 158.075 226.997 158.089 227.377 158.097C227.763 158.391 227.86 158.727 227.931 159.187C228.217 161.035 228.026 162.9 228.372 164.764C231.333 165.106 234.224 165.097 237.184 164.707C237.08 161.387 237.023 158.065 237.013 154.742C234.669 155.467 232.44 156.182 229.99 156.446C228.413 153.069 227.648 148.971 227.068 145.296C226.702 142.96 226.311 140.58 226.111 138.225C225.03 141.941 221.447 161.333 219.54 162.388C217.836 163.329 210.81 161.307 208.766 160.81C208.648 162.002 208.755 166.718 208.071 167.341L207.875 167.244L207.978 167.391C207.594 167.458 207.603 167.448 207.268 167.247C206.343 165.646 207.169 159.632 207.28 157.552C208.081 141.3 209.753 125.102 212.288 109.029C213.422 101.739 214.555 94.3429 216.478 87.2148C217.081 84.9791 218.01 82.7153 218.316 80.4225C218.704 77.5088 218.127 74.3474 219.117 71.5417C220.071 70.6938 221.672 69.3906 223.006 69.4186C223.261 69.424 223.293 69.4404 223.516 69.4892C223.69 69.7233 223.728 69.6588 223.667 69.9054C223.356 71.1654 221.352 72.0765 220.305 72.6789C220.172 74.9545 219.877 77.3017 220.002 79.5759C223.447 76.9509 226.766 74.172 230.215 71.5497C228.835 69.9411 227.687 68.323 226.571 66.5251C226.56 66.509 226.546 66.4967 226.532 66.4825ZM80.7518 178.787C77.1656 179.13 73.4259 180.311 69.9594 181.26C61.5464 183.566 48.183 187.117 41.3802 192.435C44.1797 195.354 47.497 197.273 50.8265 199.496C52.6804 200.733 54.4596 202.084 56.2335 203.433C60.4357 206.648 67.8242 210.83 73.2026 210.073C78.2492 209.364 83.6308 204.522 87.5608 201.426C87.8911 194.534 88.3022 187.645 88.7939 180.762C86.069 180.337 83.5027 178.952 80.7518 178.787ZM75.6545 165.037C66.0954 168.566 56.5078 172.018 46.8927 175.393C41.1955 177.446 35.563 179.758 29.8161 181.651C29.9492 183.744 30.4803 185.842 30.7714 187.925C31.4406 192.987 32.1456 198.044 32.8866 203.097C33.2575 205.77 33.6063 208.446 33.9328 211.125C34.1535 212.859 34.2838 214.76 34.8032 216.429L37.8466 216.386C37.6787 215.721 37.4916 215.058 37.3987 214.378C37.126 212.894 36.2565 208.089 37.0902 206.9C38.0835 205.484 42.0942 206.482 44.2592 203.636C45.334 202.223 45.9736 200.386 46.6683 198.767C44.7503 197.521 40.4607 195.198 40.0333 192.739C39.9412 192.21 40.103 191.785 40.43 191.375C41.1546 190.466 42.3915 189.797 43.3826 189.215C49.659 185.536 56.6546 183.503 63.5977 181.491C68.4992 180.05 73.4299 178.71 78.3867 177.472C77.9581 175.476 76.6507 166.055 75.967 165.058L75.6545 165.037ZM83.539 216.167C73.4299 216.702 63.2764 216.862 53.1567 217.21C46.7397 217.431 40.2865 217.936 33.8687 217.962C33.933 222.2 33.6842 226.463 33.8785 230.699C35.3523 230.691 36.8147 230.665 38.2864 230.573C46.6311 230.496 55.0015 230.099 63.3445 229.844C71.6014 229.593 79.8885 229.484 88.1356 229.016C88.1008 225.462 88.1331 219.389 87.5162 216.075C86.1937 216.092 84.8581 216.073 83.539 216.167ZM228.889 189.62C228.41 190.23 228.281 190.41 227.46 190.506C225.574 190.723 223.618 190.701 221.718 190.792L211.465 191.313C209.906 191.387 207.886 191.204 206.42 191.641C206.48 191.968 206.488 192.027 206.751 192.225C207.605 192.865 209.423 193.17 210.461 193.488C216.37 195.297 219.914 198.238 221.22 204.53C221.604 206.377 221.694 208.258 221.9 210.127C224.951 210.013 228.006 209.835 231.059 209.746C238.44 209.338 245.908 209.103 253.3 208.983C253.334 205.425 254.169 197.649 251.517 195.055C247.819 191.439 234.403 190.146 228.889 189.62ZM254.238 210.478C243.516 210.895 232.785 211.202 222.069 211.725C222.455 215.114 223.473 219.514 226.289 221.766C226.631 222.038 226.988 222.29 227.358 222.523C228.152 222.989 228.939 223.464 229.75 223.898C234.114 223.081 238.616 223.262 243.036 223.193C247.976 223.097 252.914 222.933 257.849 222.703C258.042 218.737 258.192 214.338 257.616 210.416C256.493 210.421 255.358 210.395 254.238 210.478ZM265.538 28.9971C264.989 33.837 264.788 38.7079 264.446 43.5652L262.373 75.3048C259.752 112.76 257.66 150.25 256.097 187.763C255.968 190.323 254.682 207.854 255.024 208.651C255.516 208.898 255.968 208.821 256.51 208.74L263.485 92.9904L265.678 55.9028C266.177 47.1462 266.478 38.332 267.425 29.6111C266.801 29.415 266.143 29.2479 265.538 28.9971ZM86.0848 205.061C85.9969 205.082 85.908 205.102 85.8207 205.127C84.4112 205.527 82.7923 206.946 81.5895 207.775C74.9 212.388 70.3105 213.025 62.836 209.313C61.2001 208.5 59.5839 207.342 57.817 206.857C53.8876 205.779 42.6073 207.009 38.4114 207.845C38.3685 209.38 38.3217 211.041 38.6317 212.548C38.8091 213.692 38.9217 214.998 39.379 216.064C40.2851 216.367 47.2682 215.787 48.73 215.735L75.1404 214.906C79.2734 214.766 83.4318 214.455 87.5619 214.397C87.5166 211.319 87.5067 208.241 87.5323 205.164C87.0503 205.13 86.5663 205.102 86.0848 205.061ZM184.172 60.4666C183.818 68.2175 183.419 75.9663 182.975 83.7126C182.702 88.4349 181.763 93.5961 182.492 98.2763C182.975 95.5051 183.707 92.7915 184.4 90.0671C185.744 84.7653 186.936 79.3577 189.96 74.7076C193.133 70.8364 202.272 67.8522 207.029 65.4343C209.689 64.0831 212.119 62.3997 214.521 60.6435C210.812 60.1235 206.522 60.4609 202.743 60.4663C196.558 60.4751 190.354 60.3499 184.172 60.4666ZM191.679 182.792C183.203 183.037 173.405 184.593 165.112 183.194C169.929 185.346 174.51 188.154 179.798 189.02C187.434 190.269 192.882 186.253 201.251 188.905C202.637 189.435 204.133 190.161 205.622 190.289C208.424 190.53 212.993 189.94 215.923 189.757C219.688 189.521 223.832 189.738 227.497 188.862C224.716 187.308 221.201 186.879 218.114 186.213C209.526 184.357 200.536 182.274 191.679 182.792ZM122.389 215.092L107.372 215.532C107.089 218.256 106.933 220.995 106.748 223.727C106.636 225.374 106.422 227.054 106.435 228.704C107.396 228.646 108.357 228.601 109.319 228.57C114.62 228.424 119.923 228.126 125.225 228.063C124.921 224.174 124.558 218.817 123.782 215.087L122.389 215.092ZM227.252 60.6899C222.853 66.8487 215.624 68.6118 208.611 69.9507C207.186 70.2225 205.77 70.6104 204.342 70.8404C204.281 70.8501 204.221 70.8576 204.161 70.8662C203.361 78.62 203.178 86.4699 202.774 94.2525C202.383 101.277 202.16 108.309 202.103 115.343C202.089 118.791 201.998 122.302 202.391 125.733C202.716 123.878 202.971 122.011 203.155 120.136L207.076 86.6187C207.353 84.2701 207.584 81.9163 207.768 79.5586C207.909 77.7125 207.928 75.777 208.337 73.9673C208.591 72.8528 209.024 72.0222 209.943 71.3193C212.576 69.3034 216.189 69.0742 219.243 68.0532C224.155 66.4122 229.106 63.9231 233.189 60.7605C231.237 60.7767 229.195 60.8959 227.252 60.6899ZM253.297 58.5631C253.281 58.6395 253.264 58.7155 253.25 58.7922C253.097 59.655 253.597 60.1924 252.866 60.9056C251.196 61.2606 249.198 61.0635 247.489 61.0378L235.638 60.7455C233.229 62.4866 230.814 64.1875 228.218 65.644C229.526 67.5187 230.965 69.3074 232.366 71.1125L235.761 75.2221C239.575 72.8483 252.901 63.6901 253.773 59.9132C253.847 59.5922 253.823 59.3863 253.758 59.0709C253.609 58.8876 253.481 58.7106 253.297 58.5631ZM149.352 214.323C147.526 214.4 145.599 214.317 143.791 214.537C143.482 218.703 143.966 223.002 143.975 227.188C147.344 227.152 150.712 227.064 154.078 226.923C155.946 226.878 157.814 226.855 159.683 226.854C159.341 222.57 158.506 218.442 157.571 214.255C154.847 214.243 152.069 214.138 149.352 214.323ZM110.856 204.172L108.843 204.264C108.299 207.385 107.763 210.789 107.642 213.949C111.92 213.919 116.195 213.654 120.474 213.626L123.521 213.472C122.977 210.372 122.613 207.082 121.715 204.067C118.098 204.087 114.471 204.052 110.856 204.172ZM250.474 66.7218C248.594 68.0633 246.739 69.4406 244.911 70.853C246.635 73.622 248.159 76.5225 249.731 79.3795C251.517 79.2938 253.302 79.1786 255.084 79.0341C256.894 78.8569 258.712 78.712 260.506 78.3875C260.589 76.78 260.838 75.1358 260.81 73.5306C259.237 72.603 251.176 66.8913 250.474 66.7218ZM140.018 61.9209C139.758 63.6063 139.586 65.3526 138.904 66.9318C137.093 71.1303 132.995 74.7886 136.415 79.445C136.566 79.6515 136.733 79.8396 136.903 80.0308C138.265 80.6148 139.782 80.8684 141.23 81.1652L144.537 81.7603C145.049 79.8496 145.701 77.7615 145.652 75.7626C145.588 73.1861 142.197 65.49 140.774 63.0157C140.561 62.6451 140.333 62.2079 140.018 61.9209ZM251.872 224.474C245.196 224.82 238.477 224.905 231.791 225.06C233.017 226.016 234.209 226.975 235.239 228.144C237.073 228.624 238.912 229.083 240.757 229.519C246.048 230.816 251.371 232.605 256.727 233.56C254.527 230.737 253.864 227.943 253.544 224.419L251.872 224.474ZM145.853 203.253L143.651 203.306C143.635 206.445 143.521 209.667 143.801 212.794L155.116 212.51L157.022 212.477C156.273 209.32 155.002 206.062 153.361 203.253C150.858 203.228 148.355 203.228 145.853 203.253ZM110.212 192.831C109.674 196.097 109.39 199.399 108.849 202.66L120.471 202.554L121.426 202.472C121.291 200.154 120.633 197.925 120.385 195.628C116.559 194.24 114.03 193.743 110.212 192.831ZM91.8874 100.087C91.7681 103.767 91.6432 107.54 90.9074 111.159C90.3449 113.926 89.4102 116.62 88.9664 119.407C89.8278 120.213 90.3726 120.585 91.542 120.844C92.4033 120.919 93.2715 121.022 94.1358 121.046C94.4136 118.224 94.241 115.259 94.2242 112.422C94.2027 108.761 94.3154 104.005 93.8569 100.44L91.8874 100.087ZM254.992 60.9888C254.026 62.5824 252.678 63.9108 251.406 65.2624C253.939 67.1849 256.584 68.9562 259.326 70.5671L260.829 71.4924C261.276 67.9965 261.173 64.4301 261.624 60.9445C259.431 60.899 257.165 61.1314 254.992 60.9888ZM236.742 96.6056C236.193 99.2825 236.555 105.898 236.559 108.918L236.385 132.87L236.336 142.515C236.327 144.259 236.441 146.12 236.242 147.85C234.36 148.183 231.424 148.429 229.907 149.606L229.862 149.869C230.181 150.171 230.544 150.285 230.977 150.27C231.634 150.248 232.317 150.114 232.968 150.016C234.055 149.825 235.173 149.673 236.241 149.393C236.393 150.372 236.521 151.36 236.771 152.321C237.287 148.173 237.161 143.925 237.213 139.753L237.476 123.417L237.642 105.799C237.651 103.154 237.839 100.372 237.639 97.7427C237.617 97.468 237.557 97.16 237.368 96.9474C237.208 96.768 236.958 96.6907 236.742 96.6056ZM216.358 60.5137C216.306 60.5626 216.253 60.6109 216.203 60.6606C216.009 60.8477 215.867 61.0495 215.707 61.2643C213.492 64.24 209.883 65.7544 206.631 67.3119C205.762 67.7282 204.807 68.1024 204.012 68.6417C206.685 67.8705 209.389 67.5413 212.137 67.1711C217.856 66.1952 221.309 64.6022 225.543 60.5887C222.496 60.6072 219.397 60.7212 216.358 60.5137ZM138.309 100.97C137.919 101.007 137.672 100.943 137.39 101.234C137.009 105.172 137.293 110.766 137.709 114.703C138.203 114.061 138.648 113.446 139.036 112.732C140.727 108.989 141.481 105.086 142.149 101.065C140.872 101.028 139.587 100.959 138.309 100.97ZM243.441 72.0046C241.427 73.4888 239.494 75.0895 237.544 76.6554L237.459 78.4791C239.029 78.7603 240.624 78.8607 242.212 78.9945C244.031 79.1544 245.838 79.2351 247.664 79.2794C246.395 76.8209 245.011 74.2829 243.441 72.0046ZM114.791 168.193C113.422 172.924 112.668 177.878 111.697 182.703C112.465 182.4 113.23 182.086 114.013 181.825C115.189 181.496 116.372 181.119 117.575 180.913C117.236 179.152 115.482 168.822 114.791 168.193ZM48.0743 199.731C47.1259 201.66 46.2356 203.649 44.893 205.342C47.2717 205.31 49.6496 205.236 52.0256 205.119L55.6189 204.97C53.1244 203.203 50.7545 201.215 48.0743 199.731ZM202.409 69.2271C201.19 69.8275 199.962 70.4093 198.725 70.9723C199.056 73.8761 199.41 76.8237 199.327 79.7494C199.888 79.6384 200.228 79.138 200.54 78.6743C201.986 76.5213 202.258 74.208 202.471 71.6829C202.537 70.9076 202.661 70.0978 202.518 69.3277L202.409 69.2271ZM110.498 190.095L110.423 191.69C113.732 192.388 117.134 193.19 120.262 194.496C119.786 193.017 118.952 192.244 117.583 191.526C115.479 190.423 112.842 190.095 110.498 190.095ZM143.498 198.204C143.482 199.413 143.485 200.622 143.507 201.831L151.713 201.774C149.227 199.799 146.525 198.99 143.498 198.204ZM118.115 184.91C116.377 185.553 114.538 186.376 112.745 186.821C112.437 187.16 112.47 187.174 112.016 187.207L112.004 187.153C112.062 187.193 112.112 187.25 112.177 187.274C112.426 187.37 112.814 187.371 113.087 187.391C115.038 187.51 116.991 187.436 118.939 187.526C118.818 186.693 118.76 185.518 118.115 184.91ZM229.239 228.823C228.909 229.169 228.532 229.505 228.524 230.021C228.518 230.516 228.78 230.924 229.158 231.214C229.967 231.834 230.942 232.023 231.937 231.969C232.277 231.583 232.563 231.323 232.606 230.785C232.463 230.215 232.226 229.852 231.723 229.535C231.001 229.079 230.09 228.826 229.239 228.823ZM231.322 249.516C230.768 249.674 230.384 249.79 229.945 250.171C229.812 250.54 229.729 250.646 229.932 251.02C230.348 251.786 231.599 252.212 232.403 252.325C232.499 252.338 232.592 252.349 232.688 252.361C233.128 252.169 233.724 251.971 233.967 251.52C234.126 251.229 234.144 250.906 233.981 250.613C233.637 249.99 232.769 249.639 232.1 249.562C231.842 249.533 231.582 249.524 231.322 249.516ZM111.168 188.429L110.808 188.651L110.819 188.858C111.787 189.338 113.41 189.126 114.492 189.234C116.342 189.418 117.918 190.015 119.525 190.924C119.762 190.48 119.309 189.131 119.18 188.592C116.539 188.777 113.833 188.325 111.168 188.429ZM234.783 240.732C234.349 241.001 234.117 241.19 233.848 241.627C233.84 242.062 233.823 242.175 234.141 242.516C234.749 243.168 235.896 243.284 236.725 243.287C237.162 243.001 237.48 242.816 237.72 242.329C237.725 241.909 237.745 241.786 237.439 241.455C236.841 240.812 235.599 240.721 234.783 240.732ZM117.42 182.445C115.702 182.869 112.631 183.266 111.421 184.604C111.321 184.95 111.286 185.124 111.38 185.475C111.751 185.47 111.599 185.519 111.851 185.387C113.007 184.976 117.347 183.741 117.927 182.972C117.76 182.611 117.783 182.602 117.42 182.445ZM242.802 232.803C242.398 233.309 242.055 233.734 242.098 234.424C242.122 234.847 242.316 235.196 242.648 235.453C243.251 235.919 243.954 235.902 244.673 235.799C244.969 235.478 245.28 235.167 245.306 234.701C245.332 234.23 245.074 233.827 244.725 233.538C244.159 233.071 243.519 232.882 242.802 232.803ZM216.096 240.387C215.621 240.641 215.275 240.83 214.935 241.253C214.838 241.656 214.783 241.778 215.021 242.156C215.486 242.891 216.635 243.051 217.401 243.134C217.871 242.891 218.396 242.619 218.545 242.067C218.607 241.842 218.536 241.647 218.424 241.449C217.996 240.683 216.861 240.52 216.096 240.387ZM208.28 246.431C207.772 246.661 207.402 246.807 207.074 247.272C207.016 247.644 206.977 247.752 207.243 248.066C207.792 248.712 208.972 248.738 209.732 248.659C209.78 248.655 209.829 248.647 209.876 248.641C210.332 248.401 210.715 248.232 211.012 247.79C211.027 247.552 211.095 247.416 210.936 247.215C210.512 246.672 209.644 246.457 208.987 246.432C208.752 246.425 208.516 246.425 208.28 246.431ZM224.701 236.911C224.573 237.471 224.428 238.039 224.793 238.552C225.137 239.035 225.834 239.212 226.396 239.24C226.771 239.258 227.154 239.235 227.529 239.215C227.677 238.791 227.847 238.386 227.654 237.942C227.461 237.497 227.065 237.262 226.623 237.125C226.005 236.931 225.343 236.931 224.701 236.911ZM216.875 249.619C216.596 250.11 216.479 250.222 216.51 250.799C216.784 251.276 217.073 251.463 217.59 251.606C218.253 251.789 218.87 251.783 219.548 251.743C219.789 251.262 219.888 251.139 219.846 250.586C219.582 250.131 219.29 249.94 218.797 249.796C218.178 249.614 217.516 249.608 216.875 249.619ZM191.805 245.801C192.395 246.949 193.405 247.764 193.928 248.982L195.42 248.493L195.763 248.146C195.683 247.727 195.537 247.593 195.192 247.344C194.294 246.695 192.868 246.074 191.805 245.801Z" fill="black"/>
<path d="M125.734 38.3608C126.914 38.1313 128.411 38.2185 129.614 38.336C130.459 38.4186 131.61 38.5244 132.176 39.212C130.724 39.1078 127.184 39.3326 126.018 38.7824C125.77 38.6652 125.816 38.6044 125.734 38.3608Z" fill="#FEFEFE"/>
<path d="M135.951 56.13C136.978 56.8876 137.807 58.0946 138.613 59.0819C138.249 60.8314 138.149 62.7034 137.91 64.4792L137.913 64.7365L137.776 64.8239C136.908 62.7251 136.197 58.4732 135.951 56.13Z" fill="#FEFEFE"/>
<path d="M136.032 252.448L136.435 252.385L136.672 252.564C136.889 253.315 136.765 254.149 136.723 254.922C135.217 255.292 133.844 255.365 132.295 255.333C131.708 254.887 131.544 253.732 131.353 253.041C132.932 252.932 134.474 252.711 136.032 252.448Z" fill="#FEFEFE"/>
<path d="M93.9008 250.497C95.7357 250.902 97.4527 250.873 99.3214 250.771C99.1867 251.556 98.9783 252.334 98.7985 253.109C97.8076 253.783 95.235 253.304 94.0813 253.183C93.9687 252.301 93.9538 251.386 93.9008 250.497Z" fill="#FEFEFE"/>
<path d="M147.385 77.5068C148.163 78.1566 148.751 79.2439 149.305 80.096C149.741 80.7667 150.925 82.3607 150.758 83.1417L150.227 83.1456L146.147 82.0867C146.588 80.5691 146.977 79.0336 147.385 77.5068Z" fill="#FEFEFE"/>
<path d="M94.3474 254.993C95.652 255.047 96.9562 255.11 98.26 255.181C98.1811 256.348 98.2041 257.52 98.3289 258.683C98.4875 260.235 99.6609 264.074 98.7484 265.309C96.9033 267.808 88.332 270.232 85.2676 271.812C83.1243 272.918 82.273 274.407 79.7133 274.871L79.5095 274.816L79.4249 274.619C79.8993 274.295 80.3693 274.007 80.7348 273.556C80.7827 273.169 80.7426 273.089 80.5902 272.723C79.2596 271.995 78.2064 273.384 77.0426 273.072L76.9495 272.769C77.0141 272.666 77.048 272.537 77.143 272.461C77.544 272.144 78.5721 271.864 79.0756 271.62C80.2429 271.055 81.3545 270.382 82.3957 269.61C85.5848 267.262 91.1227 261.954 93.094 258.58C93.768 257.426 94.1502 256.317 94.3474 254.993Z" fill="#FEFEFE"/>
<path d="M132.824 257.403C134 257.331 135.187 257.333 136.365 257.306C138.275 263.511 140.48 266.912 145.341 271.269C146.281 272.11 147.475 272.6 148.332 273.549C148.124 273.792 147.912 274.019 147.776 274.313C147.679 274.522 147.763 274.581 147.84 274.782C148.214 275.047 148.592 275.264 148.812 275.679C148.717 276.182 148.182 276.502 147.84 276.857C147.877 277.346 148.299 277.66 148.574 278.071L148.402 278.252C145.587 277.169 143.758 274.742 141.199 273.27C138.056 271.46 133.216 271.241 130.904 268.367C130.803 266.229 131.23 259.544 132.251 257.714C132.388 257.469 132.574 257.485 132.824 257.403Z" fill="#FEFEFE"/>
<path d="M94.0926 29.5969C95.5487 30.3395 97.1009 30.9431 98.5833 31.6392C100.95 32.7499 103.249 33.9971 105.471 35.3744C96.8887 43.6232 99.7614 49.3133 96.2937 59.3698C96.2751 59.4193 96.2573 59.4692 96.2378 59.5184C95.7646 60.715 94.117 64.6976 92.8366 65.1027C92.6311 65.1678 92.5265 65.0221 92.3624 64.9165C91.4508 63.3387 91.4529 60.9454 91.2982 59.1486C90.4307 49.0722 91.5135 39.3504 94.0926 29.5969Z" fill="#FEFEFE"/>
<path d="M91.6418 67.647L91.763 67.7521C91.8663 68.5436 90.8797 70.3988 90.6488 71.2892C90.0892 73.4459 89.9593 75.5693 90.0449 77.7886C88.7909 79.2204 87.4148 80.5022 85.8447 81.5821C84.4514 82.5405 78.8906 85.0952 78.3029 86.1347C78.1588 86.3895 78.2137 86.3837 78.2783 86.6447C78.4842 86.8197 78.5208 86.8916 78.8002 86.9449C81.2968 87.4217 87.6751 82.6209 89.815 81.0718C92.6843 81.2462 95.537 80.8727 98.3797 80.5388C97.9759 82.9072 94.8927 97.2549 94.0932 98.5873L93.6967 98.6847C86.1373 97.4244 78.8235 95.634 72.1313 91.7453C70.5396 90.8205 68.7883 89.7873 67.6864 88.2732C66.8472 87.1203 66.411 85.7139 66.705 84.2951C67.0069 82.837 67.9849 81.6656 69.0593 80.6879C70.7895 79.1133 72.8953 77.927 74.9094 76.755C80.3521 73.588 86.3735 70.9859 91.6418 67.647Z" fill="#FEFEFE"/>
<path d="M243.86 197.733L244.199 197.71C245.325 197.633 246.661 197.381 247.589 198.192C247.621 198.398 247.706 198.502 247.547 198.673C247.169 199.078 246.432 199.218 245.906 199.294C244.068 199.562 242.029 199.441 240.158 199.547C235.135 199.831 230.068 200.065 225.059 200.534C223.785 200.651 222.104 200.997 220.989 200.223L220.951 199.931C221.506 199.371 222.496 199.182 223.252 199.054C225.425 198.687 227.811 198.728 230.021 198.59C234.632 198.267 239.245 197.982 243.86 197.733Z" fill="black"/>
<path d="M118.101 40.3643C120.074 41.3402 121.558 42.2451 122.551 44.2739C123.358 44.7189 124.14 45.0187 125.014 45.3043C124.995 45.8786 124.845 46.4339 125.134 46.9688C125.981 48.5348 128.002 47.5044 129.215 48.0781C129.406 48.1684 129.579 48.267 129.618 48.4861C129.783 49.4328 128.462 51.0168 127.905 51.7455L129.266 52.6933C129.309 56.3002 129.496 60.633 127.947 63.9664C125.158 69.97 120.534 66.1112 117.767 67.1241L117.653 67.3969C118.035 68.1983 118.903 68.6554 119.658 69.0496C119.548 71.0792 118.899 75.8662 119.909 77.5078C120.985 79.2577 123.885 79.5446 125.736 79.9305C124.665 84.5435 123.11 88.4387 120.56 92.4399C119.858 93.5307 118.953 94.5258 118.088 95.4881C112.786 90.7454 108.834 85.1732 106.139 78.5857C107.028 78.2104 107.929 77.8884 108.561 77.1255C108.795 76.345 108.886 75.5317 108.961 74.7224C109.271 71.3589 109.278 67.9778 109.489 64.6093C109.572 63.2859 110.137 60.5647 109.917 59.3953C109.727 58.3882 106.997 58.0343 106.247 56.4902C105.811 55.5918 105.708 54.4898 106.065 53.5472C106.275 52.9914 106.694 52.4904 107.255 52.2638C108.007 51.9598 108.67 52.3551 109.339 52.6776C114.07 49.9024 116.341 45.35 118.101 40.3643Z" fill="#FEFEFE"/>
<path d="M124.87 50.212C125.045 50.2529 125.067 50.2531 125.261 50.3299C125.935 50.5969 126.666 51.0146 126.872 51.7609C126.996 52.2128 126.786 52.5692 126.587 52.9558C125.962 52.6153 124.771 52.0965 124.567 51.3664C124.427 50.8676 124.647 50.6253 124.87 50.212Z" fill="black"/>
<path d="M117.938 49.3418C118.272 49.3439 118.507 49.3161 118.806 49.4851C119.017 49.6043 118.994 49.6922 119.066 49.9035C118.91 50.7731 118.113 51.4316 117.499 52.0158C117.374 51.993 117.224 51.9716 117.108 51.9206C116.741 51.7581 116.666 51.6562 116.522 51.311C116.613 50.4563 117.341 49.8846 117.938 49.3418Z" fill="black"/>
<path d="M121.91 61.3192C122.443 61.3698 122.925 61.4439 123.426 61.645C123.932 61.8475 124.588 62.1876 124.742 62.7661C124.873 63.2615 124.644 63.5306 124.427 63.9435C123.988 63.9697 123.549 63.9408 123.118 63.8573C122.568 63.7452 121.997 63.4837 121.737 62.9552C121.447 62.3663 121.687 61.8735 121.91 61.3192Z" fill="black"/>
<path d="M124.055 53.4042C124.555 53.5163 124.967 53.6198 125.329 54.0053C125.814 54.5228 126.058 55.2373 126.028 55.9429C125.982 57.0161 125.637 57.649 124.864 58.3628C124.682 58.336 124.394 58.3167 124.216 58.2461C123.85 58.1007 123.825 58.0307 123.708 57.6879C123.846 57.1382 124.224 56.7397 124.57 56.3064C124.227 55.3239 124.031 54.4513 124.055 53.4042Z" fill="black"/>
<path d="M126.394 40.5287C126.601 40.516 126.809 40.5059 127.016 40.4984C129.893 40.3867 133.53 40.4115 135.742 42.5802C137.644 44.4442 138.407 47.6045 139.506 49.9675C140.215 51.5031 141.074 52.965 142.07 54.3318C144.477 57.6673 147.695 60.4455 150.489 63.4557C155.184 68.5116 166.419 81.2462 166.267 88.3426C166.227 90.2204 165.367 91.9069 164.041 93.2082C158.189 98.9494 145.176 99.2651 137.386 99.2135C137.163 93.6851 135.635 88.0699 134.109 82.7845C134.07 82.649 134.03 82.5141 133.996 82.3774C133.895 81.9649 133.837 81.7651 134.056 81.3978C135.391 81.1971 137.402 82.0489 138.723 82.3866C141.511 83.0999 144.345 83.6386 147.145 84.3031C149.363 84.8294 152.886 86.2954 155.093 86.0673C155.413 85.8243 155.399 85.7717 155.51 85.3795C155.236 84.0979 154.219 84.3019 153.492 83.419C151.72 81.2717 150.12 78.5056 148.746 76.077C145.867 70.9859 144.256 65.3007 141.359 60.2644C139.662 57.3138 137.147 54.9152 135.174 52.153C134.132 50.6944 133.706 48.8424 132.476 47.5066C130.593 45.4609 127.785 46.7993 126.691 45.856C127.786 43.992 132.553 46.3128 134.338 45.651L134.428 45.4297C134.347 45.2377 134.257 45.0944 134.108 44.9464C132.17 43.0207 128.393 43.9628 125.897 43.9342C125.268 43.9271 124.264 43.8931 123.797 43.4125L123.905 43.1467C126.928 41.598 130.943 43.486 134.047 42.9014L134.098 42.6242C132.181 39.853 126.736 42.2188 124.081 41.2621L124.019 41.0306C124.541 40.5415 125.705 40.5769 126.394 40.5287Z" fill="#FEFEFE"/>
<path d="M220.343 89.9428L221.174 90.0213C221.42 90.1623 221.531 90.2604 221.674 90.5141C223.249 93.2868 224.574 110.339 223.785 113.368C223.242 113.37 222.973 113.437 222.501 113.153C221.826 111.193 222.247 107.412 222.206 105.212C222.159 103.45 222.053 101.69 221.887 99.935C221.583 96.9514 219.92 92.7029 220.343 89.9428Z" fill="black"/>
<path d="M193.482 83.0497C194.326 85.2799 193.682 103.735 193.196 106.767C193.073 105.998 193.404 83.3599 193.482 83.0497Z" fill="black" fill-opacity="0.929412"/>
<path d="M195.035 232.326C195.568 232.383 195.832 232.626 196.207 232.971V233.329C195.482 234.244 191.281 234.956 189.987 235.323C189.534 235.338 189.268 235.249 188.895 234.993C188.812 234.593 188.8 234.53 189.051 234.174C190.012 232.811 193.485 232.454 195.035 232.326Z" fill="black"/>
<path d="M153.904 196.673C158.237 196.907 163.219 198.116 167.23 199.744C171.101 201.315 173.85 203.947 175.449 207.814C178.072 214.148 176.554 221.132 173.987 227.235C174.966 229.602 176.335 232.246 176.408 234.853C176.443 236.165 176.071 237.46 175.133 238.409C172.318 241.26 164.744 240.781 160.999 240.717L160.332 240.615C160.082 240.42 159.861 240.291 159.741 239.986C159.67 239.808 159.686 239.848 159.755 239.689C160.965 238.711 164.278 239.348 165.833 239.28C167.319 239.214 168.87 239.046 170.321 238.728C171.823 238.397 173.624 237.813 174.445 236.412C175.88 233.969 173.276 230.808 172.824 228.35C172.378 225.925 173.734 223.429 174.35 221.126C175.239 217.799 175.425 214.388 174.619 211.025C172.73 203.149 166.173 200.609 158.9 199.144C157.332 198.827 155.034 198.69 153.679 197.855C153.55 197.432 153.754 197.067 153.904 196.673Z" fill="black"/>
<path d="M103.798 79.558L104.358 79.4915C104.895 79.9551 105.241 80.8353 105.538 81.4704C107.145 84.9011 108.892 87.9259 111.216 90.9209C112.422 92.4743 116.295 97.4682 118.127 97.4584C118.667 97.4556 119.25 97.064 119.644 96.7282C120.643 95.8757 121.387 94.6777 122.101 93.5887C124.769 89.5218 126.804 85.2137 127.257 80.3069C128.73 80.545 130.208 80.7577 131.688 80.9449C133.721 86.7944 135.36 93.5104 135.636 99.709C135.729 101.804 135.573 103.913 135.547 106.009C135.532 108.348 135.624 110.687 135.82 113.019C136.493 121.762 137.726 130.465 138.84 139.16L139.326 142.936C135.542 144.177 131.778 145.081 127.831 145.632C118.732 146.9 101.631 147.148 94.0809 141.457C95.2887 132.905 95.9268 124.282 95.9909 115.645C95.9956 110.834 95.4524 105.143 95.906 100.48C96.1725 97.7397 96.9073 95.0299 97.525 92.3507C98.4284 88.2768 99.4244 84.2239 100.512 80.1952C101.615 80.0652 102.711 79.7905 103.798 79.558Z" fill="#FEFEFE"/>
<path d="M94.6494 147.571C102.833 151.65 116.666 151.351 125.642 150.345C129.909 149.866 134.128 149.063 138.339 148.24C138.96 151.119 139.244 154.085 139.588 157.008C140.063 161.051 140.559 165.103 140.602 169.179C140.026 169.353 139.181 169.534 138.802 170.043C138.567 170.358 138.506 170.917 138.589 171.301C138.681 171.727 138.733 171.769 139.078 171.984C139.499 171.98 140.028 171.913 140.411 172.106C140.652 172.226 140.831 172.607 140.901 172.859C141.226 174.044 141.038 175.716 141.07 176.954L141.308 183.692C141.589 193.397 141.803 203.104 141.948 212.813C142.11 221.163 142.42 229.558 141.915 237.899C141.725 241.027 141.58 245.314 140.008 248.043C139.05 249.704 137.553 250.213 135.802 250.659C135.803 250.05 135.854 249.356 135.728 248.759C135.611 248.21 135.357 247.847 134.882 247.552C134.476 247.587 134.394 247.603 134.115 247.943C133.527 248.655 133.718 249.888 133.811 250.734C133.352 250.842 132.892 250.956 132.429 251.042C131.64 251.188 130.875 251.237 130.201 250.734C128.339 249.344 127.86 239.258 127.696 236.744C127.253 229.965 126.755 223.261 125.769 216.535C125.071 211.773 124.039 207.088 123.241 202.348C122.381 197.23 121.636 192.098 120.697 186.993C119.798 182.116 118.725 177.269 117.753 172.406C117.206 169.668 116.867 166.713 116.067 164.051C115.924 163.575 115.686 163.299 115.33 162.969C115.107 162.903 114.986 162.793 114.769 162.922C113.44 163.709 112.468 170.008 112.113 171.72C111.067 176.769 109.91 181.871 109.08 186.957C108.342 191.479 107.881 196.055 107.334 200.603C106.621 206.27 105.966 211.945 105.368 217.625C104.491 226.732 104.729 236.185 102.542 245.112C102.256 246.277 101.867 247.569 100.765 248.199C99.082 249.164 96.2073 249.182 94.3677 248.641C93.2502 248.312 92.4496 247.4 91.925 246.4C91.1781 244.976 90.2277 241.535 90.734 239.992C90.9636 239.672 91.119 239.594 91.4808 239.478C91.833 239.368 92.3152 239.255 92.5233 238.925C92.7978 238.488 92.8015 237.877 92.6143 237.402C92.4737 237.045 92.1977 236.775 91.8204 236.681C91.5197 236.607 91.2522 236.678 90.9844 236.81C90.8912 236.854 90.8002 236.905 90.7073 236.951C90.6413 236.984 90.5744 237.016 90.5081 237.048L90.3813 237.111C90.0591 236.056 89.9663 229.287 89.8933 227.78C88.9529 208.03 89.5891 188.237 91.7961 168.588C92.5545 161.579 93.3929 154.51 94.6494 147.571Z" fill="#FEFEFE"/>
<path d="M110.607 157.626C110.919 157.617 111.369 157.608 111.666 157.714C112.042 157.848 112.198 158.018 112.381 158.361C112.484 159.244 112.148 159.673 111.614 160.352C111.195 160.407 110.852 160.399 110.479 160.19C110.218 160.044 110.041 159.778 109.991 159.481C109.859 158.706 110.172 158.224 110.607 157.626Z" fill="black"/>
<path d="M138.781 241.11C139.085 241.112 139.474 241.126 139.755 241.253C140.121 241.418 140.329 241.707 140.43 242.09C140.632 242.847 139.94 243.744 139.52 244.282C139.274 244.257 138.955 244.21 138.731 244.11C138.372 243.951 138.103 243.708 138.006 243.316C137.803 242.493 138.341 241.743 138.781 241.11Z" fill="black"/>
<path d="M135.392 154.116C135.474 154.119 135.556 154.122 135.639 154.127C136.232 154.162 136.622 154.342 137.019 154.778C137.118 155.038 137.199 155.234 137.142 155.52C137.013 156.163 136.519 156.503 136.023 156.857C135.331 156.845 134.917 156.729 134.431 156.237C134.314 155.98 134.246 155.81 134.282 155.517C134.371 154.802 134.854 154.507 135.392 154.116Z" fill="black"/>
<path d="M117.031 154.718C117.585 154.718 118.376 154.764 118.766 155.217C118.924 155.402 119.011 155.624 118.999 155.862C118.963 156.548 118.499 156.903 118.026 157.331C117.844 157.358 117.662 157.388 117.479 157.402C116.965 157.445 116.698 157.303 116.323 156.972C116.185 156.696 116.119 156.536 116.127 156.217C116.142 155.577 116.594 155.124 117.031 154.718Z" fill="black"/>
<path d="M102.162 218.197C102.501 218.213 102.914 218.233 103.205 218.43C103.533 218.653 103.667 218.943 103.711 219.323C103.801 220.114 103.082 220.905 102.579 221.407C102.26 221.369 101.833 221.231 101.569 221.044C101.248 220.817 101.057 220.563 101.024 220.166C100.953 219.331 101.621 218.72 102.162 218.197Z" fill="black"/>
<path d="M135.424 177.647C136.142 177.567 136.554 177.564 137.151 178.02C137.321 178.292 137.401 178.443 137.413 178.773C137.437 179.442 136.981 179.958 136.566 180.422C136.22 180.494 135.814 180.581 135.467 180.464C135.107 180.342 134.858 180.096 134.748 179.732C134.524 178.986 135.024 178.221 135.424 177.647Z" fill="black"/>
<path d="M129.86 185.885C130.202 185.976 130.614 186.108 130.885 186.351C131.173 186.608 131.33 186.95 131.314 187.339C131.282 188.149 130.562 188.749 129.993 189.217C129.655 189.186 129.282 189.138 129.01 188.911C128.715 188.665 128.591 188.325 128.604 187.949C128.633 187.102 129.277 186.419 129.86 185.885Z" fill="black"/>
<path d="M129.779 207.766C130.174 207.742 130.582 207.715 130.963 207.845C131.298 207.96 131.553 208.289 131.618 208.629C131.761 209.369 131.069 210.146 130.628 210.645C130.259 210.704 129.815 210.782 129.459 210.629C129.115 210.481 128.942 210.232 128.861 209.878C128.683 209.101 129.319 208.3 129.779 207.766Z" fill="black"/>
<path d="M93.0251 212.983C93.3443 213.008 93.744 213.113 94.0186 213.285C94.3417 213.486 94.5432 213.797 94.5646 214.183C94.6084 214.972 93.9218 215.609 93.41 216.1C92.9355 216.163 92.6754 216.169 92.2167 216.035C91.9208 215.76 91.8051 215.684 91.7737 215.254C91.7119 214.398 92.4959 213.543 93.0251 212.983Z" fill="black"/>
<path d="M95.837 159.147C95.9999 159.149 96.1634 159.146 96.3258 159.158C96.8323 159.197 97.159 159.384 97.4959 159.766C97.6077 160.069 97.6548 160.23 97.5994 160.559C97.4863 161.23 96.9429 161.601 96.4384 161.976C96.0555 161.979 95.5348 161.984 95.1943 161.774C94.8367 161.554 94.7939 161.408 94.6516 161.038C94.7389 160.098 95.1366 159.75 95.837 159.147Z" fill="black"/>
<path d="M126.534 195.768C126.807 195.855 127.249 196.041 127.436 196.272C127.698 196.597 127.76 196.853 127.705 197.263C127.6 198.036 126.708 198.647 126.098 198.994C125.775 198.947 125.33 198.808 125.102 198.552C124.863 198.281 124.766 197.964 124.84 197.609C125.035 196.657 125.756 196.215 126.534 195.768Z" fill="black"/>
<path d="M94.0438 184.876C94.6457 184.826 95.1831 184.792 95.6611 185.235C95.9069 185.462 95.9946 185.83 95.9564 186.156C95.8723 186.873 95.4124 187.274 94.9164 187.739C94.6069 187.794 94.1066 187.863 93.8016 187.728C93.4463 187.57 93.2706 187.4 93.1709 187.022C92.9676 186.254 93.6156 185.424 94.0438 184.876Z" fill="black"/>
<path d="M121.456 164.048C121.89 164.134 122.424 164.338 122.73 164.669C122.963 164.921 123.072 165.238 123.056 165.58C123.018 166.393 122.5 166.881 121.948 167.416C121.493 167.484 121.283 167.434 120.861 167.29C120.577 167.004 120.447 166.905 120.401 166.479C120.301 165.558 120.94 164.727 121.456 164.048Z" fill="black"/>
<path d="M127.279 153.756C127.661 153.821 128.179 153.921 128.476 154.195C128.757 154.453 128.891 154.725 128.874 155.114C128.841 155.914 128.122 156.449 127.544 156.877C127.027 156.834 126.524 156.772 126.16 156.356C125.971 156.139 125.911 155.84 125.956 155.559C126.094 154.708 126.638 154.268 127.279 153.756Z" fill="black"/>
<path d="M133.017 235.732C133.295 235.782 133.735 235.929 133.946 236.128C134.212 236.381 134.328 236.658 134.297 237.027C134.224 237.896 133.322 238.662 132.732 239.223C132.428 239.162 131.968 239.008 131.753 238.763C131.474 238.445 131.411 238.186 131.443 237.771C131.511 236.91 132.404 236.208 133.017 235.732Z" fill="black"/>
<path d="M104.382 153.596C104.769 153.699 105.224 153.85 105.519 154.138C105.799 154.41 105.953 154.713 105.911 155.111C105.825 155.92 105.182 156.359 104.568 156.777C104.155 156.765 103.664 156.772 103.329 156.489C103.033 156.239 102.962 155.977 102.974 155.602C102.999 154.819 103.845 154.058 104.382 153.596Z" fill="black"/>
<path d="M138.818 228.506C139.173 228.547 139.6 228.647 139.894 228.87C140.221 229.118 140.378 229.384 140.401 229.796C140.45 230.628 139.789 231.259 139.248 231.785C138.891 231.8 138.415 231.857 138.095 231.657C137.78 231.459 137.618 231.176 137.607 230.804C137.581 229.945 138.306 229.119 138.818 228.506Z" fill="black"/>
<path d="M138.246 216.056C138.577 216.061 139.029 216.161 139.295 216.378C139.61 216.635 139.738 216.864 139.76 217.27C139.807 218.121 139.027 218.831 138.46 219.33C138.063 219.288 137.6 219.257 137.272 218.997C137.002 218.783 136.91 218.504 136.904 218.173C136.888 217.319 137.686 216.578 138.246 216.056Z" fill="black"/>
<path d="M130.973 164.846C131.482 164.837 132.052 164.821 132.453 165.19C132.707 165.427 132.797 165.758 132.758 166.096C132.665 166.912 132.125 167.404 131.522 167.891C131.212 167.936 130.709 167.944 130.415 167.81C130.028 167.633 130 167.471 129.854 167.104C129.941 166.096 130.329 165.612 130.973 164.846Z" fill="black"/>
<path d="M100.393 193.611C100.763 193.625 101.26 193.657 101.556 193.92C101.858 194.188 102 194.469 102.004 194.872C102.013 195.697 101.381 196.324 100.826 196.84C100.448 196.803 99.9871 196.775 99.6623 196.558C99.3543 196.35 99.2036 196.084 99.1564 195.725C99.0478 194.891 99.8676 194.116 100.393 193.611Z" fill="black"/>
<path d="M94.3211 171.763C94.6895 171.777 95.1948 171.797 95.515 172.006C95.8975 172.258 95.923 172.395 96.049 172.81C95.892 173.754 95.409 174.161 94.7218 174.78C94.2025 174.873 93.9009 174.859 93.4123 174.65C93.1537 174.327 93.0536 174.231 93.0573 173.794C93.065 172.913 93.7131 172.293 94.3211 171.763Z" fill="black"/>
<path d="M91.605 200.659C91.9958 200.703 92.4351 200.797 92.7521 201.052C93.0842 201.32 93.2178 201.603 93.2341 202.029C93.2664 202.875 92.6011 203.535 92.0358 204.062C91.5538 204.058 91.328 204.009 90.8975 203.792C90.6239 203.484 90.5054 203.295 90.4983 202.872C90.4833 201.981 91.0364 201.272 91.605 200.659Z" fill="black"/>
<path d="M99.4788 230.381C99.8124 230.387 100.298 230.427 100.58 230.642C100.894 230.884 101.07 231.164 101.083 231.562C101.113 232.46 100.41 233.171 99.8176 233.738C99.5294 233.729 99.0583 233.709 98.7971 233.563C98.4915 233.392 98.2865 233.145 98.2546 232.786C98.1743 231.882 98.9398 231.025 99.4788 230.381Z" fill="black"/>
<path d="M136.653 200.183C137.133 200.236 137.579 200.277 137.968 200.596C138.294 200.862 138.478 201.206 138.481 201.631C138.488 202.452 137.941 202.95 137.363 203.441C137.051 203.481 136.56 203.461 136.275 203.306C135.959 203.135 135.744 202.914 135.69 202.547C135.559 201.663 136.18 200.86 136.653 200.183Z" fill="black"/>
<path d="M123.744 175.931C124.198 176.088 124.654 176.217 124.929 176.648C125.132 176.964 125.149 177.294 125.057 177.65C124.835 178.512 124.114 178.992 123.396 179.41C123.095 179.305 122.722 179.109 122.508 178.864C122.254 178.573 122.154 178.27 122.194 177.886C122.288 176.989 123.075 176.406 123.744 175.931Z" fill="black"/>
<path d="M105.77 165.923C106.197 165.959 106.715 165.978 107.035 166.307C107.312 166.592 107.361 166.882 107.321 167.262C107.234 168.09 106.451 168.731 105.844 169.188C105.485 169.157 105.035 169.113 104.723 168.905C104.455 168.726 104.311 168.431 104.323 168.111C104.357 167.247 105.2 166.489 105.77 165.923Z" fill="black"/>
<path d="M106.653 186.841C107.307 186.859 107.898 186.839 108.356 187.387C108.616 187.697 108.682 188.073 108.606 188.465C108.471 189.157 108.037 189.491 107.516 189.904C106.977 189.944 106.545 189.92 106.115 189.566C105.873 189.366 105.752 189.082 105.738 188.768C105.702 187.929 106.112 187.427 106.653 186.841Z" fill="black"/>
<path d="M138.988 190.52C139.353 190.535 139.755 190.569 140.065 190.79C140.398 191.026 140.518 191.333 140.559 191.724C140.648 192.573 139.865 193.411 139.336 193.957C138.983 193.939 138.472 193.865 138.187 193.623C137.9 193.38 137.763 193.082 137.762 192.708C137.761 191.798 138.39 191.119 138.988 190.52Z" fill="black"/>
<path d="M101.608 205.118C101.991 205.175 102.386 205.282 102.653 205.588C102.917 205.891 102.995 206.273 102.933 206.663C102.778 207.639 102.228 208.206 101.472 208.777C101.21 208.734 100.785 208.661 100.567 208.486C100.239 208.221 100.158 207.982 100.146 207.569C100.123 206.733 101.085 205.717 101.608 205.118Z" fill="black"/>
<path d="M92.8503 224.534C93.3058 224.559 93.8566 224.564 94.2296 224.87C94.516 225.103 94.6612 225.411 94.6357 225.782C94.5768 226.634 93.8649 227.118 93.234 227.564C92.7458 227.624 92.4237 227.655 91.9454 227.484C91.6732 227.2 91.5727 227.131 91.564 226.712C91.5464 225.883 92.3255 225.074 92.8503 224.534Z" fill="black"/>
<path d="M130.242 223.319C130.737 223.293 131.066 223.322 131.537 223.482C131.796 223.744 131.959 223.85 131.933 224.254C131.874 225.151 130.993 225.929 130.388 226.508C129.968 226.577 129.577 226.446 129.184 226.32C128.93 226.025 128.831 225.929 128.838 225.51C128.852 224.584 129.618 223.882 130.242 223.319Z" fill="black"/>
<path d="M95.1159 243.004C95.4373 243.048 95.8268 243.09 96.1299 243.201C96.4765 243.328 96.7828 243.588 96.9034 243.948C97.1926 244.808 96.5143 245.775 96.1036 246.486C95.7025 246.667 95.2926 246.66 94.8732 246.558C94.6246 246.369 94.4905 246.198 94.4145 245.888C94.1578 244.84 94.6252 243.888 95.1159 243.004Z" fill="black"/>
<path d="M104.588 177.146C104.98 177.184 105.31 177.258 105.621 177.506C105.896 177.724 106.06 178.012 106.054 178.376C106.037 179.41 105.24 180.181 104.493 180.771C104.095 180.727 103.693 180.674 103.384 180.382C103.113 180.127 103.018 179.771 103.06 179.41C103.173 178.466 103.933 177.754 104.588 177.146Z" fill="black"/>
</svg>
